<?xml version="1.0" encoding="iso-8859-1"?>
<!-- Uploaded to: SVG Repo, www.svgrepo.com, Generator: SVG Repo Mixer Tools -->
<svg height="800px" width="800px" version="1.1" id="Layer_1" xmlns="http://www.w3.org/2000/svg" xmlns:xlink="http://www.w3.org/1999/xlink" 
	 viewBox="0 0 512 512" xml:space="preserve">
<path style="fill:#AA5446;" d="M510.39,227.797v-21.414c0-17.545-4.734-34.655-14.114-49.482L424.367,43.069
	C407.307,16.101,378.181,0,346.268,0h-24.46c-20.037,0-39.086,7.583-53.638,21.356L256,32.873l-12.17-11.517
	C229.278,7.583,210.229,0,190.192,0h-24.46c-31.913,0-61.15,16.101-78.212,43.068L15.725,156.901
	C6.344,171.728,1.61,188.839,1.61,206.384v21.414c0,5.133,1.412,10.134,4.445,14.275l9.522,13.148l-10.15,15.352
	c-2.541,3.863-3.722,8.376-3.774,13L1.61,305.165c0,0.09,0,0.179,0,0.269c0,17.707,4.819,34.951,14.36,49.87L88.787,469.32
	C105.883,496.044,134.915,512,166.64,512h24.481c20.224,0,39.401-7.707,54-21.7L256,479.871l10.878,10.427
	C281.476,504.293,300.655,512,320.879,512h24.481c31.725,0,60.87-15.956,77.966-42.681l72.704-114.017
	c9.541-14.917,14.36-32.163,14.36-49.87c0-0.09,0-0.179,0-0.269l-0.016-21.594c-0.052-4.624-1.317-9.135-3.858-13l-10.037-15.352
	l9.438-13.148C508.951,237.93,510.39,232.931,510.39,227.797z"/>
<path style="fill:#DD6B5B;" d="M256,32.873l-12.17-11.517C229.278,7.583,210.229,0,190.192,0h-24.46
	c-31.913,0-61.15,16.101-78.212,43.068L15.725,156.901C6.344,171.728,1.61,188.839,1.61,206.384v21.414
	c0,5.133,1.412,10.134,4.445,14.275l9.522,13.148l-10.15,15.352c-2.541,3.863-3.722,8.376-3.774,13L1.61,305.165v0.269
	c0,17.707,4.819,34.951,14.36,49.87L88.787,469.32C105.883,496.044,134.915,512,166.64,512h24.481c20.224,0,39.401-7.707,54-21.7
	L256,479.871L256,32.873L256,32.873z"/>
<path style="fill:#B9CED9;" d="M190.192,48.302h-24.46c-0.778,0-1.549,0.034-2.318,0.072l32.99,28.286
	c10.126,8.681,11.296,23.929,2.615,34.054c-4.775,5.571-11.541,8.432-18.345,8.432l0,0l0,0c-5.564,0-11.155-1.913-15.709-5.817
	l-41.971-35.985l-14.764,23.339c44.356,10.52,81.419,43.485,96.056,88.518c4.123,12.686-2.813,26.188-15.497,30.311
	c-2.48,0.805-4.982,1.066-7.455,1.066c-0.005,0-0.01,0-0.014,0s-0.01,0-0.014,0c-10.18,0-19.648-6.365-22.964-16.571
	c-11.163-34.347-42.771-57.606-78.323-58.622l-23.473,37.31c-4.486,7.089-6.632,15.3-6.632,23.689v13.513l49.848,68.336
	c7.883,10.76,5.44,25.872-5.32,33.755c-4.059,2.974-8.746,4.49-13.433,4.651c-7.751,0.299-15.507-3.133-20.435-9.858l-11.04-15.067
	l-0.056,3.835c0.023,8.424,2.425,16.626,6.967,23.724l19.53,30.538l4.109-3.661c30.704-27.361,70.262-42.428,111.387-42.428l0,0l0,0
	c13.338,0,24.151,10.813,24.151,24.151c0,13.338-10.813,24.151-24.151,24.151c-29.26,0-57.405,10.721-79.251,30.187l-9.889,8.812
	l20.414,31.916l39.97-34.27c10.126-8.683,25.371-7.514,34.054,2.615c8.683,10.126,7.513,25.373-2.615,34.054l-32.71,28.046
	c1.712,0.2,3.444,0.312,5.196,0.312h24.481c7.706,0,15.012-2.937,20.575-8.268l20.155-19.316V76.518L210.63,56.438
	C205.085,51.192,197.827,48.302,190.192,48.302z M192.097,291.421h-17.996c-51.859,0-93.598-42.142-93.598-94
	c0-0.002,0-0.003,0-0.003c0-0.003,0-0.005,0-0.008c0-13.338,10.588-24.116,23.927-24.116s24.038,10.778,24.038,24.116
	c0,24.434,19.203,44.425,43.338,45.65c0.779,0.04,1.505,0.06,2.294,0.06h17.996c13.338,0,24.151,10.813,24.151,24.151
	C216.248,280.608,205.434,291.421,192.097,291.421z"/>
<path style="fill:#96A8B0;" d="M451.426,316.781c-4.73,6.456-12.066,9.878-19.501,9.878c-0.011,0-0.023-0.002-0.034-0.002
	c-0.008,0-0.014,0.002-0.023,0.002c-4.954,0-10.008-1.518-14.31-4.671c-10.758-7.883-13.203-22.997-5.32-33.755l49.849-68.338
	v-13.513c0-8.387-2.146-16.569-6.632-23.657l-23.475-37.281c-35.552,1.01-67.159,24.336-78.322,58.685
	c-3.317,10.205-12.784,16.692-22.964,16.693c-0.005,0-0.01,0-0.014,0c-0.005,0-0.01,0-0.014,0c-2.475,0-4.975-0.383-7.455-1.188
	c-12.684-4.123-19.62-17.748-15.497-30.433c14.635-45.032,51.71-77.983,96.061-88.508l-14.769-23.348l-41.97,35.983
	c-4.555,3.904-10.147,5.817-15.709,5.817l0,0l0,0c-6.806,0-13.568-2.859-18.345-8.432c-8.683-10.126-7.511-25.373,2.615-34.054
	l32.99-28.286c-0.77-0.04-1.541-0.072-2.318-0.072h-24.46c-7.635,0-14.893,2.89-20.438,8.137l-21.221,20.079v359.595l20.152,19.316
	c5.564,5.334,12.871,8.269,20.577,8.269h24.481c1.752,0,3.484-0.113,5.196-0.312l-32.71-28.046
	c-10.126-8.681-11.296-23.929-2.615-34.054c8.681-10.126,23.929-11.296,34.054-2.615l39.97,34.27l20.414-31.916l-9.889-8.814
	c-21.844-19.466-49.989-30.187-79.25-30.187c-13.338,0-24.151-10.813-24.151-24.151c0-13.338,10.813-24.151,24.151-24.151
	c41.124,0,80.682,15.067,111.386,42.428l4.112,3.665l19.535-30.541c4.54-7.099,6.951-15.299,6.973-23.724l-0.056-3.854
	L451.426,316.781z M337.899,291.421h-17.996c-13.338,0-24.151-10.813-24.151-24.151c0-13.338,10.813-24.151,24.151-24.151h17.996
	c25.223,0,45.745-20.475,45.745-45.698c0-13.338,10.813-24.128,24.151-24.128s24.151,10.778,24.151,24.116c0,0.003,0,0.005,0,0.008
	c0,0.002,0,0.003,0,0.003C431.946,249.28,389.758,291.421,337.899,291.421z"/>
</svg>